# xmcd CD Database Entry
#
# Track frame offsets:
# 150
# 17458
# 39369
# 58134
# 81881
# 105720
# 128051
# 154080
# 168481
# 187013
#
# Disc length: 2665 seconds
#
# Revision: 1
# Processed by: cddbd v1.4PL0 Copyright (c) Steve Scherf et al.
# Submitted via: tcd 2.0b
#
DISCID=7a0a670a
DTITLE=el soldado - tren de fugitivos
DYEAR=1900
DGENRE=
TTITLE0=boleto de empeño
TTITLE1=la fiera
TTITLE2=trago especial
TTITLE3=angel de los perdedores
TTITLE4=tren de fugitivos
TTITLE5=veneno sabor miel
TTITLE6=puerto sin ley
TTITLE7=ella es
TTITLE8=polvo y blues
TTITLE9=balada para un hombre buscado
EXTD=
EXTT0=
EXTT1=
EXTT2=
EXTT3=
EXTT4=
EXTT5=
EXTT6=
EXTT7=
EXTT8=
EXTT9=
PLAYORDER=
